<svg xmlns="http://www.w3.org/2000/svg" viewBox="0 0 53.1584 53.1584"><path d="m 41.2457,42.148 c 3.4336,-3.4551 4.0772,-8.8353 1.4883,-12.98 -1.6535,-2.8029 -4.1332,-5.0297 -6.6616,-7.0338 -1.8375,-1.4884 -3.7956,-2.9394 -5.1346,-4.9233 -1.3719,-2.0674 -2.0572,-4.8156 -1.1019,-7.1875 0.7557,-1.93517 2.8862,-3.13333 4.9306,-2.86899 0.5344,0.05315 1.0387,0.22268 1.5214,0.44536 -2.8862,-1.45962 -6.146,-2.28281 -9.6039,-2.28281 -0.8103,0 -1.5142,0.06177 -2.2943,0.20256 -7.1602,1.30302 -11.2475,8.94158 -6.6373,14.82608 3.2094,3.9967 8.6787,4.4176 13.1754,6.133 4.4377,1.5128 8.5235,5.1992 8.7534,10.1311 0.3563,4.7424 -2.8675,8.9546 -7.1688,10.5262 3.277,-0.9122 6.2221,-2.6477 8.6069,-4.8615 0.0431,-0.0431 0.0847,-0.0848 0.1235,-0.125 z" fill="#0c375e"/><path d="m 47.2953,31.3761 c 0.296,-2.4925 0.0718,-4.9952 -0.7959,-7.426 -0.9166,-2.5643 -3.0227,-5.3888 -2.3374,-6.6659 0.3994,-0.7428 1.4525,-0.5373 1.7585,0.158 -1.4798,-3.0916 -3.6807,-5.7523 -6.3888,-7.81961 -2.8603,-2.18225 -6.4361,-1.35044 -7.1745,1.68231 -1.0516,4.3128 2.8862,6.8843 5.7753,9.2419 3.6979,3.0428 7.3024,7.0366 7.5423,12.0562 0.1365,2.6247 -0.7744,5.1704 -2.2972,7.278 1.8116,-2.2771 3.4882,-5.3673 3.9192,-8.5063 z" fill="#0c375e"/><path d="M 37.0795,35.7521 C 35.0093,29.1665 27.2098,28.7413 21.7406,26.5418 17.8832,25.0535 14.3922,21.8914 13.7658,17.6447 12.8679,12.6179 16.2957,7.58685 21.051,6.06976 12.0131,8.53934 5.37012,16.8086 5.37012,26.6294 c 0,11.7704 9.54208,21.3125 21.31248,21.3125 6.8125,0 12.503,-5.8054 10.3955,-12.1898 z" fill="#0c375e"/></svg>